<svg xmlns="http://www.w3.org/2000/svg" viewBox="0 0 700 700"><defs><style>.cls-1{fill:#efc519;}.cls-2{fill:#58c1d5;}.cls-3{fill:#2a7ec2;}.cls-4{fill:none;}</style></defs><g id="Layer_2" data-name="Layer 2"><g id="Layer_1-2" data-name="Layer 1"><path class="cls-1" d="M454.54,310.53l82.53-42.94c3.37,4.21,7.58,10.94,13.47,19.37.84,2.52,2.54,4.21,4.22,6.73,8.42,11.79,14.32,21.89,19.37,29.48,11,17.68,14.32,25.27,14.32,25.27l-7.59,1.68h-16Z"/><path class="cls-1" d="M5.66,233.05c4.21-4.21,29.48-4.21,38.74-4.21h3.37l346.13,8.43,43.79-32.85,44.64-28.63c44.64-29.48,87.59-54.74,120.44-60.64a132.85,132.85,0,0,1,23.58-2.52c18.52,0,30.3,4.21,30.3,4.21,4.22,0,21.06,1.68,28.64,5.89,7.58,3.37,15.16,10.1,3.36,29.48C676,171.58,639,195.15,639,195.15L351.79,345.91s12.64,7.57,15.17,10.94-7.58,6.75-7.58,6.75l-39.59-13.48s-25.26,3.36-33.69,4.21h-4.21c-4.21,0-10.1,0-11.79-2.53-4.21-5.05.85-12.63.85-12.63l-98.54-6.73H162.29l3.38-4.22a11,11,0,0,1,9.26-4.21l113.7-2.53,22.74-22.73L27.55,248.22,12.4,245.69c-15.17-2.53-15.17-4.21-6.74-12.64"/><path class="cls-2" d="M694.77,469c-90.65,4.9-138.57-47-221.23-61.41-60.83-10.58-129.41.13-177.79,30.29,140.87-46.76,255.92,66.94,399,31.12"/><path class="cls-2" d="M200.24,503.82l69-22.12c-5.44-16.56-32.4-88.11-97.82-108.29ZM101.7,546,118,568.64,256.51,538a50.11,50.11,0,0,0,38.95-54.21Zm61.89-161.44-38.12,110.7L185.17,482Z"/><path class="cls-3" d="M0,563.74c235.19,80.12,472.34-77.26,700,19.52-73.41-55.19-188.32-83.53-297-77.42-147.69,8.28-248,80.95-403,57.9"/><rect class="cls-4" width="700" height="700"/></g></g></svg>