<svg version="1.1" id="Layer_1" xmlns="http://www.w3.org/2000/svg" xmlns:xlink="http://www.w3.org/1999/xlink" x="0px" y="0px"
	 viewBox="0 0 319.6 96.9" style="enable-background:new 0 0 319.6 96.9;" xml:space="preserve">
<style type="text/css">
	.st0{fill:#ED7E35;}
	.st1{fill:#253168;}
	.st2{fill:#EFC519;}
	.st3{fill:#58C1D5;}
	.st4{fill:#2A7EC2;}
</style>
<g>
	<path class="st0" d="M0,42.9l2.8-6.2c3,2.2,7.5,3.7,11.8,3.7c4.9,0,6.9-1.6,6.9-3.8c0-6.7-20.8-2.1-20.8-15.4
		C0.7,15.1,5.6,10,15.8,10c4.5,0,9.1,1.1,12.4,3.2l-2.6,6.3c-3.3-1.9-6.8-2.8-9.9-2.8c-4.9,0-6.8,1.8-6.8,4.1
		c0,6.6,20.8,2,20.8,15.2c0,6-5,11.1-15.2,11.1C8.9,47.1,3.2,45.4,0,42.9"/>
	<path class="st0" d="M35.2,30.7V10.6h8.3v19.8c0,6.8,3,9.6,8,9.6c5.1,0,8-2.8,8-9.6V10.6h8.2v20.1c0,10.5-6,16.4-16.2,16.4
		C41.2,47.1,35.2,41.3,35.2,30.7"/>
	<polygon class="st0" points="108.7,10.6 108.7,46.5 101.9,46.5 84,24.7 84,46.5 75.8,46.5 75.8,10.6 82.7,10.6 100.5,32.4 
		100.5,10.6 	"/>
	<polygon class="st0" points="150.1,10.6 150.1,46.5 143.3,46.5 125.4,24.7 125.4,46.5 117.2,46.5 117.2,10.6 124.1,10.6 
		141.9,32.4 141.9,10.6 	"/>
	<polygon class="st0" points="175.8,33.8 175.8,46.5 167.5,46.5 167.5,33.7 153.6,10.6 162.4,10.6 172,26.6 	"/>
	<polygon class="st1" points="35.7,60.4 35.7,96.3 27.4,96.3 27.4,81.6 11.1,81.6 11.1,96.3 2.8,96.3 2.8,60.4 11.1,60.4 11.1,74.6 
		27.4,74.6 27.4,60.4 	"/>
	<path class="st1" d="M43.9,80.5V60.4h8.3v19.8c0,6.8,3,9.6,8,9.6c5.1,0,8-2.8,8-9.6V60.4h8.2v20.1c0,10.5-6,16.4-16.2,16.4
		C49.9,96.9,43.9,91,43.9,80.5"/>
	<path class="st1" d="M107.4,96.3l-6.9-10h-0.4h-7.2v10h-8.3V60.4h15.5c9.6,0,15.6,5,15.6,13c0,5.4-2.7,9.3-7.4,11.3l8,11.5H107.4z
		 M99.6,67.2h-6.8v12.5h6.8c5.1,0,7.6-2.4,7.6-6.2C107.2,69.5,104.7,67.2,99.6,67.2"/>
	<path class="st1" d="M146.4,77.8h7.6v14.5c-3.9,3-9.4,4.6-14.5,4.6c-11.3,0-19.6-7.7-19.6-18.5s8.3-18.5,19.7-18.5
		c6.3,0,11.5,2.2,15,6.2l-5.3,4.9c-2.6-2.8-5.6-4-9.3-4c-7,0-11.7,4.7-11.7,11.5c0,6.7,4.8,11.5,11.6,11.5c2.3,0,4.4-0.4,6.5-1.5
		V77.8z"/>
	<polygon class="st1" points="194.6,60.4 194.6,96.3 186.3,96.3 186.3,81.6 170,81.6 170,96.3 161.7,96.3 161.7,60.4 170,60.4 
		170,74.6 186.3,74.6 186.3,60.4 	"/>
	<path class="st1" d="M226.7,88.6H210l-3.2,7.7h-8.5l16-35.8h8.2l16,35.8h-8.7L226.7,88.6z M224.1,82.3l-5.7-13.7l-5.7,13.7H224.1z"
		/>
	<path class="st1" d="M242.3,60.4h16.3c11.7,0,19.8,7.1,19.8,17.9c0,10.9-8,17.9-19.8,17.9h-16.3V60.4z M258.2,89.5
		c7.1,0,11.8-4.2,11.8-11.1c0-6.9-4.7-11.1-11.8-11.1h-7.6v22.2H258.2z"/>
	<path class="st1" d="M307.7,88.6H291l-3.2,7.7h-8.5l16-35.8h8.2l16,35.8h-8.7L307.7,88.6z M305.1,82.3l-5.7-13.7l-5.7,13.7H305.1z"
		/>
	<path class="st2" d="M287.3,17.7l7.4-3.8c0.3,0.4,0.7,1,1.2,1.7c0.1,0.2,0.2,0.4,0.4,0.6c0.8,1.1,1.3,2,1.7,2.6
		c1,1.6,1.3,2.3,1.3,2.3l-0.7,0.2h-0.2h-0.1h-0.1H298h-0.1h-0.2h-0.1h-0.1h-0.1h-0.1h-0.1h-0.2c0.1,0,0.1,0,0,0c0.1,0,0,0,0,0
		L287.3,17.7z"/>
	<path class="st2" d="M247.3,10.8c0.4-0.4,2.6-0.4,3.5-0.4h0.3l30.9,0.8l3.9-2.9l4-2.6c4-2.6,7.8-4.9,10.8-5.4
		c0.8-0.1,1.5-0.2,2.1-0.2c1.7,0,2.7,0.4,2.7,0.4c0.4,0,1.9,0.1,2.6,0.5c0.7,0.3,1.4,0.9,0.3,2.6c-1.1,1.7-4.4,3.8-4.4,3.8
		l-25.6,13.5c0,0,1.1,0.7,1.4,1c0.2,0.3-0.7,0.6-0.7,0.6l-3.5-1.2c0,0-2.3,0.3-3,0.4h-0.4c-0.4,0-0.9,0-1.1-0.2
		c-0.4-0.5,0.1-1.1,0.1-1.1l-8.8-0.6h-0.9l0.3-0.4c0.3-0.4,0.7-0.4,0.8-0.4l10.2-0.2l2-2l-25.3-4.5l-1.4-0.2
		C246.5,11.7,246.5,11.5,247.3,10.8"/>
	<path class="st0" d="M265.5,23.7c-13,3.9-34.9-9.5-55.9-9.5c-23.2,0-33.2,18.8-32.5,17.9c-0.4,0.6-0.8,1.1-1.3,1.7
		c-2.1,2.7-4.7-4.9-3.2-6.1c9.4-10.8,18.9-17.2,33.9-17.2C229.5,10.4,251.7,26.9,265.5,23.7"/>
	<path class="st3" d="M317.5,41.3c-18.8,1-28.8-9.8-45.9-12.7c-12.6-2.2-26.9,0-36.9,6.3C263.9,25.1,287.8,48.7,317.5,41.3"/>
	<path class="st3" d="M214.9,36.3l9.1-2.9c-0.7-2.2-4.3-11.6-12.9-14.3L214.9,36.3z M201.9,41.8l2.2,3l18.3-4
		c3.3-0.7,5.5-3.9,5.1-7.2L201.9,41.8z M210.1,20.5l-5,14.6l7.9-1.7L210.1,20.5z"/>
	<path class="st4" d="M188.5,44.2c31,10.6,62.3-10.2,92.4,2.6c-9.7-7.3-24.9-11-39.2-10.2C222.2,37.6,208.9,47.2,188.5,44.2"/>
</g>
</svg>
